<?xml version="1.0" encoding="UTF-8"?>
<svg id="Layer_2" data-name="Layer 2" xmlns="http://www.w3.org/2000/svg" viewBox="0 0 153.55 53.45">
  <defs>
    <style>
      .cls-1 {
        fill: #f9f9f9;
      }
    </style>
  </defs>
  <g id="Swatch_Info_Layer" data-name="Swatch Info Layer">
    <g>
      <path class="cls-1" d="M35.75,25.09c0-.57.04-1.13.13-1.67.81-5.28,5.38-9.34,10.88-9.34h.08l1.98-14.08h-11.3l-3.26,23.19-1.06,7.51L18.51,0H7.06L0,50.18h11.31l4.39-30.86,14.62,30.86h11.44l2.04-14.49c-4.64-1.29-8.05-5.56-8.05-10.6Z"/>
      <path class="cls-1" d="M43.82,25.3c0-1.23.76-2.29,1.83-2.73l.77-5.48c-4.25.18-7.67,3.69-7.67,8,0,3.53,2.3,6.53,5.47,7.59l.71-5.06c-.68-.54-1.11-1.38-1.11-2.32Z"/>
      <path class="cls-1" d="M47.89,28.04l-.71,5.05c4.23-.22,7.59-3.72,7.59-8,0-3.51-2.26-6.49-5.4-7.57l-.77,5.46c.69.54,1.13,1.38,1.13,2.32,0,1.24-.76,2.3-1.84,2.74Z"/>
      <path class="cls-1" d="M82.65,0l-2.66,19.08h-19.52l.03-.18L63.14,0h-11.31l-2.04,14.51c2.2.63,4.12,1.93,5.52,3.66.2.25.39.51.57.77,1.2,1.76,1.89,3.87,1.89,6.15,0,1.52-.31,2.96-.87,4.28-1.67,3.95-5.59,6.73-10.14,6.73l-1.98,14.08h11.3l2.93-20.51.03-.22h19.51l-2.96,20.73h11.31L93.96,0h-11.31Z"/>
      <polygon class="cls-1" points="93.43 35.91 95.82 35.91 95.82 31.51 99.99 31.51 99.99 29.38 95.82 29.38 95.82 27.43 100.61 27.43 100.61 25.3 93.43 25.3 93.43 35.91"/>
      <path class="cls-1" d="M100.93,34.17c.33.59.79,1.06,1.38,1.4.58.34,1.25.51,1.99.51s1.4-.17,1.98-.51,1.04-.81,1.37-1.4c.33-.59.5-1.27.5-2.02s-.17-1.44-.5-2.02c-.33-.59-.79-1.05-1.37-1.38-.58-.33-1.24-.5-1.98-.5s-1.4.17-1.99.5c-.58.33-1.04.8-1.38,1.38-.33.59-.5,1.26-.5,2.02s.17,1.42.5,2.02ZM102.91,31.11c.12-.28.3-.49.53-.64.23-.15.52-.22.85-.22s.62.07.85.22c.23.15.41.36.52.64.12.28.18.63.18,1.04s-.06.75-.18,1.04c-.12.29-.29.51-.52.65-.23.15-.52.22-.85.22s-.62-.07-.85-.22c-.23-.15-.41-.37-.53-.65-.12-.29-.18-.64-.18-1.04s.06-.76.18-1.04Z"/>
      <path class="cls-1" d="M110.36,35.57c.58.34,1.25.51,1.99.51s1.4-.17,1.98-.51,1.04-.81,1.37-1.4c.33-.59.5-1.27.5-2.02s-.17-1.44-.5-2.02c-.33-.59-.79-1.05-1.37-1.38-.58-.33-1.24-.5-1.98-.5s-1.4.17-1.99.5c-.58.33-1.04.8-1.38,1.38-.33.59-.5,1.26-.5,2.02s.17,1.42.5,2.02c.33.59.79,1.06,1.38,1.4ZM110.96,31.11c.12-.28.3-.49.53-.64.23-.15.52-.22.85-.22s.62.07.85.22c.23.15.41.36.52.64.12.28.18.63.18,1.04s-.06.75-.18,1.04c-.12.29-.29.51-.52.65-.23.15-.52.22-.85.22s-.62-.07-.85-.22c-.23-.15-.41-.37-.53-.65-.12-.29-.18-.64-.18-1.04s.06-.76.18-1.04Z"/>
      <path class="cls-1" d="M120.68,36.02c.22-.04.44-.1.67-.19v-1.75c-.15.04-.28.07-.4.1-.12.02-.23.03-.33.03-.34,0-.56-.12-.67-.34-.12-.22-.17-.56-.17-1v-2.68h1.57v-1.78h-1.57v-2.8l-2.32,1.23v1.57h-1.24v1.78h1.24v3.33c0,.64.12,1.14.36,1.52.24.37.55.63.94.79.38.17.79.25,1.22.25.24,0,.47-.02.7-.06Z"/>
      <path class="cls-1" d="M129.04,34.17c.24-.6.36-1.27.36-2.02,0-.84-.14-1.55-.41-2.13-.28-.58-.65-1.02-1.11-1.32-.46-.31-.97-.46-1.54-.46-.35,0-.69.08-1.03.23-.34.15-.63.4-.87.74-.03.04-.06.09-.08.14v-4.05h-2.28v10.61h2.28v-.94c.04.08.08.15.13.21.27.35.57.59.9.72.33.12.64.18.95.18.65,0,1.2-.17,1.66-.51.45-.34.8-.81,1.04-1.4ZM126.92,33.14c-.11.27-.28.48-.5.62-.22.15-.48.22-.8.22-.3,0-.57-.08-.79-.22-.22-.15-.39-.36-.51-.63-.12-.28-.17-.6-.17-.98s.05-.7.17-.97c.12-.26.29-.47.51-.62.22-.15.49-.22.79-.22.32,0,.58.07.8.21.22.15.39.35.5.62.12.27.18.6.18.98s-.06.72-.18.99Z"/>
      <path class="cls-1" d="M136.9,31.15c0-.9-.3-1.6-.9-2.13-.61-.52-1.44-.78-2.51-.78-.65,0-1.25.08-1.82.24-.56.15-1.14.43-1.74.82l.97,1.62c.31-.21.68-.39,1.13-.54.45-.15.87-.22,1.26-.22s.69.07.95.23c.25.15.38.4.38.76v.12h-2.07c-.34,0-.65.03-.95.09-.29.06-.55.16-.79.29-.31.17-.56.42-.75.74-.19.33-.28.71-.28,1.15,0,.5.13.95.39,1.34.25.38.61.68,1.05.89.44.2.93.31,1.47.31.28,0,.57-.05.87-.15.3-.11.58-.29.85-.57.08-.08.15-.16.22-.26l.17.81h2.1v-4.76ZM134.41,33.58c-.15.2-.34.36-.58.48-.23.12-.5.18-.78.18s-.53-.07-.71-.19c-.18-.13-.26-.3-.26-.51,0-.1.02-.18.06-.26.04-.07.09-.13.16-.19.08-.05.16-.08.26-.1.09-.02.2-.03.32-.03h1.74c0,.24-.08.44-.21.62Z"/>
      <path class="cls-1" d="M139.74,36.08c.17,0,.37-.02.59-.05.22-.04.44-.1.68-.19v-1.95c-.08.02-.16.04-.24.05-.08.02-.16.02-.24.02-.13,0-.24-.03-.33-.09s-.13-.17-.13-.32v-8.25h-2.28v8.71c0,.72.19,1.25.56,1.58.38.33.84.49,1.38.49Z"/>
      <path class="cls-1" d="M143.49,36.08c.17,0,.37-.02.59-.05.22-.04.44-.1.68-.19v-1.95c-.08.02-.16.04-.24.05-.08.02-.16.02-.24.02-.13,0-.24-.03-.33-.09s-.13-.17-.13-.32v-8.25h-2.28v8.71c0,.72.19,1.25.56,1.58.38.33.84.49,1.38.49Z"/>
      <path class="cls-1" d="M96.73,41.98c.42-.26.92-.4,1.48-.4.63,0,1.17.16,1.61.48.44.32.76.76.97,1.33l2.25-.81c-.37-1.02-.97-1.83-1.81-2.41-.84-.58-1.85-.88-3.01-.88-1.02,0-1.93.23-2.71.7s-1.39,1.12-1.83,1.95-.65,1.81-.65,2.92.22,2.09.65,2.93c.44.84,1.04,1.49,1.83,1.96.78.47,1.68.7,2.71.7,1.17,0,2.17-.29,3.01-.88.84-.59,1.45-1.39,1.81-2.4l-2.25-.81c-.2.57-.52,1.01-.97,1.33-.44.32-.98.48-1.61.48-.57,0-1.06-.13-1.48-.4-.42-.26-.75-.64-.97-1.13-.23-.49-.34-1.08-.34-1.77s.11-1.28.34-1.77c.23-.49.55-.86.97-1.13Z"/>
      <path class="cls-1" d="M109.09,43.01c-.58-.33-1.24-.5-1.98-.5s-1.4.17-1.99.5c-.58.33-1.04.8-1.38,1.38-.33.59-.5,1.26-.5,2.02s.17,1.42.5,2.02c.33.59.79,1.06,1.38,1.4.58.34,1.25.51,1.99.51s1.4-.17,1.98-.51,1.04-.81,1.37-1.4c.33-.59.5-1.27.5-2.02s-.17-1.44-.5-2.02c-.33-.59-.79-1.05-1.37-1.38ZM108.49,47.46c-.12.29-.29.51-.52.65-.23.15-.52.22-.85.22s-.62-.07-.85-.22c-.23-.15-.41-.37-.53-.65-.12-.29-.18-.64-.18-1.04s.06-.76.18-1.04c.12-.28.3-.49.53-.64.23-.15.52-.22.85-.22s.62.07.85.22c.23.15.41.36.52.64.12.28.18.63.18,1.04s-.06.75-.18,1.04Z"/>
      <path class="cls-1" d="M115.06,42.51c-.65,0-1.26.08-1.82.23-.56.16-1.14.44-1.74.83l.97,1.62c.31-.22.68-.4,1.13-.54.45-.15.87-.22,1.26-.22s.69.07.95.22c.25.16.38.41.38.77v.12h-2.07c-.34,0-.65.03-.95.09-.29.06-.55.16-.79.29-.31.17-.56.42-.75.74-.19.33-.28.71-.28,1.14,0,.51.13.96.38,1.34.26.39.61.69,1.05.89.45.21.94.32,1.47.32.29,0,.58-.05.88-.16.3-.1.58-.28.85-.56.08-.08.15-.16.22-.26l.17.81h2.1v-4.76c0-.9-.3-1.61-.91-2.13-.6-.52-1.43-.78-2.5-.78ZM115.97,47.85c-.14.2-.33.36-.57.48-.24.12-.5.17-.78.17-.3,0-.53-.06-.71-.19-.18-.12-.27-.29-.27-.51,0-.09.02-.17.07-.25.04-.07.09-.14.16-.19.07-.05.16-.08.25-.1.1-.02.21-.03.33-.03h1.74c-.02.23-.09.44-.22.62Z"/>
      <path class="cls-1" d="M121.98,44.78c.22-.19.5-.28.86-.28.39,0,.68.1.89.3s.36.46.46.78l1.99-.79c-.28-.77-.71-1.34-1.29-1.72-.58-.38-1.26-.56-2.05-.56-.64,0-1.19.11-1.67.33s-.87.52-1.18.89c-.31.37-.55.79-.7,1.26s-.23.94-.23,1.43.08.96.23,1.43.39.89.7,1.26c.31.38.71.67,1.18.9s1.03.33,1.67.33c.79,0,1.48-.19,2.05-.56.58-.38,1.01-.95,1.29-1.72l-1.99-.79c-.1.31-.26.57-.46.78-.21.2-.5.3-.89.3-.36,0-.64-.09-.86-.28-.22-.19-.38-.43-.47-.73-.1-.3-.14-.61-.14-.92s.05-.62.14-.91c.1-.29.25-.54.47-.72Z"/>
      <path class="cls-1" d="M131.22,42.51c-.31,0-.63.05-.96.17-.33.11-.63.3-.89.58-.11.11-.2.23-.28.38v-4.07h-2.3v10.61h2.3v-3.5c0-.75.12-1.3.35-1.65.22-.35.58-.53,1.07-.53.41,0,.72.12.9.37.19.24.29.63.29,1.17v4.14h2.29v-4.99c0-.83-.24-1.48-.73-1.96-.48-.48-1.16-.72-2.04-.72Z"/>
      <rect class="cls-1" x="134.92" y="39.57" width="2.34" height="2.07"/>
      <rect class="cls-1" x="134.93" y="42.68" width="2.3" height="7.5"/>
      <path class="cls-1" d="M142.7,42.51c-.32,0-.64.05-.97.17-.33.11-.62.3-.89.58-.1.11-.19.23-.27.38v-.96h-2.3v7.5h2.3v-3.5c0-.51.05-.92.15-1.24s.26-.56.46-.71c.21-.15.48-.23.8-.23.42,0,.72.12.91.37.19.24.28.63.28,1.17v4.14h2.3v-4.99c0-.83-.24-1.48-.73-1.96-.49-.48-1.17-.72-2.04-.72Z"/>
      <path class="cls-1" d="M152.24,49.46c-.32-.15-.71-.26-1.16-.35-.45-.08-.95-.15-1.5-.21-.32-.04-.59-.08-.82-.12-.24-.04-.42-.1-.54-.18-.13-.09-.19-.2-.19-.34,0-.1.02-.18.07-.27.43.17.91.26,1.45.26.63,0,1.18-.12,1.66-.35.47-.22.84-.55,1.11-.96.26-.42.39-.91.39-1.46,0-.48-.09-.91-.28-1.29l1.12-.89-1.17-1.42-1.28,1.01s-.03-.01-.04-.02c-.49-.24-1.02-.36-1.59-.36s-1.1.12-1.59.36c-.49.23-.88.57-1.18,1-.29.43-.44.94-.44,1.53,0,.55.14,1.03.41,1.46.1.15.21.29.33.4-.13.12-.25.23-.35.36-.29.36-.44.75-.44,1.17,0,.47.16.84.46,1.12.11.1.22.19.35.26l-.96.54c-.02.09-.03.18-.04.27-.01.08-.02.16-.02.23,0,.69.33,1.24.98,1.64.66.4,1.56.6,2.71.6s2.03-.2,2.64-.61c.61-.4.92-.99.92-1.76,0-.42-.09-.76-.26-1.02-.17-.25-.42-.46-.75-.6ZM148.8,44.68c.16-.18.4-.27.7-.27s.53.09.69.27c.16.19.24.43.24.72s-.07.53-.21.74-.38.31-.72.31-.59-.1-.73-.31c-.14-.21-.21-.46-.21-.74s.08-.53.24-.72ZM150.66,51.78c-.2.11-.53.16-.97.16-.56,0-1-.06-1.31-.18s-.46-.28-.46-.47v-.05s0-.04.02-.06l.41-.51c.28.07.56.12.85.15.36.04.66.08.9.11.23.04.41.08.54.12.12.04.21.08.26.13.04.05.06.12.06.2,0,.16-.1.3-.3.4Z"/>
    </g>
  </g>
</svg>