<?xml version="1.0" encoding="UTF-8"?>
<svg id="Layer_2" data-name="Layer 2" xmlns="http://www.w3.org/2000/svg" viewBox="0 0 49.77 49.77">
  <defs>
    <style>
      .cls-1 {
        fill: #222;
      }
    </style>
  </defs>
  <g id="Layer_1-2" data-name="Layer 1">
    <g>
      <path class="cls-1" d="M5.69,49.77c-3.14,0-5.69-2.55-5.69-5.69s2.55-5.69,5.69-5.69,5.69,2.55,5.69,5.69-2.55,5.69-5.69,5.69ZM5.69,40.39c-2.04,0-3.69,1.66-3.69,3.69s1.66,3.69,3.69,3.69,3.69-1.66,3.69-3.69-1.66-3.69-3.69-3.69Z"/>
      <path class="cls-1" d="M44.08,11.39c-3.14,0-5.69-2.55-5.69-5.69s2.55-5.69,5.69-5.69,5.69,2.55,5.69,5.69-2.55,5.69-5.69,5.69ZM44.08,2c-2.04,0-3.69,1.66-3.69,3.69s1.66,3.69,3.69,3.69,3.69-1.66,3.69-3.69-1.66-3.69-3.69-3.69Z"/>
      <path class="cls-1" d="M38.33,11.39l-4.24,9.87-.97-3.77c-1.51,1.67-3.06,3.3-4.63,4.91l-2.71,2.72-2.76,2.67c-1.86,1.76-3.75,3.49-5.67,5.18-1.94,1.68-3.9,3.34-5.96,4.89,1.59-2.03,3.28-3.96,4.99-5.87,1.73-1.89,3.49-3.75,5.29-5.58l2.71-2.71,2.77-2.66c1.64-1.55,3.29-3.07,4.99-4.55l-3.75-1.03,9.94-4.07Z"/>
    </g>
  </g>
</svg>